<svg width="24" height="24" viewBox="0 0 24 24" xmlns="http://www.w3.org/2000/svg">
    <path d="M12.3516 3.95169C12.5767 3.72672 12.8818 3.60034 13.2 3.60034C13.5182 3.60034 13.8234 3.72672 14.0484 3.95169L21.2484 11.1517C21.4734 11.3767 21.5998 11.6819 21.5998 12.0001C21.5998 12.3183 21.4734 12.6235 21.2484 12.8485L14.0484 20.0485C13.8221 20.2671 13.519 20.388 13.2043 20.3853C12.8897 20.3826 12.5887 20.2564 12.3662 20.0339C12.1438 19.8114 12.0175 19.5104 12.0148 19.1958C12.0121 18.8811 12.133 18.578 12.3516 18.3517L17.5032 13.2001H3.60002C3.28176 13.2001 2.97654 13.0737 2.7515 12.8486C2.52645 12.6236 2.40002 12.3183 2.40002 12.0001C2.40002 11.6818 2.52645 11.3766 2.7515 11.1516C2.97654 10.9265 3.28176 10.8001 3.60002 10.8001H17.5032L12.3516 5.64849C12.1267 5.42345 12.0003 5.11828 12.0003 4.80009C12.0003 4.48189 12.1267 4.17672 12.3516 3.95169Z"></path>
</svg>