<svg width="24" height="24" viewBox="0 0 24 24" xmlns="http://www.w3.org/2000/svg">
    <path d="M23 12C23 18.0752 18.0752 23 12 23C5.92485 23 1 18.0752 1 12C1 5.92485 5.92485 1 12 1C18.0752 1 23 5.92485 23 12ZM10.7276 17.8245L18.889 9.66312C19.166 9.38599 19.166 8.93664 18.889 8.6595L17.8853 7.65589C17.6081 7.37871 17.1588 7.37871 16.8817 7.65589L10.2258 14.3117L7.11835 11.2042C6.84122 10.9271 6.39186 10.9271 6.11469 11.2042L5.11107 12.2078C4.83395 12.485 4.83395 12.9343 5.11107 13.2114L9.72398 17.8244C10.0011 18.1015 10.4505 18.1015 10.7276 17.8245Z"/>
</svg>