<svg width="24" height="24" viewBox="0 0 24 24" xmlns="http://www.w3.org/2000/svg">
    <path d="M14.717 11.0289L10.2161 9.67107C9.69511 9.51639 9.33254 9.01365 9.33254 8.45506C9.33254 7.75467 9.88265 7.18749 10.562 7.18749H13.325C13.8335 7.18749 14.3336 7.34647 14.7504 7.63865C15.0046 7.81483 15.3464 7.77186 15.5631 7.55272L17.0134 6.09178C17.3093 5.7953 17.2675 5.30116 16.9383 5.03905C15.9173 4.21405 14.642 3.75429 13.3334 3.75V1.6875C13.3334 1.30937 13.0334 1 12.6666 1H11.3329C10.9662 1 10.6662 1.30937 10.6662 1.6875V3.75H10.562C7.90723 3.75 5.77343 6.10038 6.01932 8.88904C6.19435 10.8699 7.66134 12.4813 9.51175 13.0398L13.7835 14.3288C14.3045 14.4879 14.667 14.9863 14.667 15.5449C14.667 16.2452 14.1169 16.8125 13.4376 16.8125H10.6745C10.1661 16.8125 9.66594 16.6535 9.24918 16.3613C8.99496 16.1851 8.65322 16.2281 8.4365 16.4472L6.9862 17.9082C6.69029 18.2047 6.73198 18.6988 7.06121 18.9609C8.08226 19.7859 9.35754 20.2457 10.6662 20.25V22.3125C10.6662 22.6906 10.9662 23 11.3329 23H12.6666C13.0334 23 13.3334 22.6906 13.3334 22.3125V20.2413C15.2754 20.2027 17.0967 19.0125 17.7385 17.1175C18.6346 14.4707 17.13 11.7551 14.717 11.0289Z"/>
</svg>