<svg width="24" height="24" viewBox="0 0 24 24" xmlns="http://www.w3.org/2000/svg">
<path d="M23.1013 9.01569C23.2771 8.87596 23.5385 9.00667 23.5385 9.22752V18.4447C23.5385 19.6392 22.5694 20.6082 21.375 20.6082H2.62501C1.43059 20.6082 0.461548 19.6392 0.461548 18.4447V9.23206C0.461548 9.00667 0.718459 8.88046 0.898748 9.02019C1.90836 9.80446 3.24701 10.8006 7.84436 14.1403C8.79538 14.8345 10.3999 16.2948 12 16.2858C13.6091 16.2993 15.2452 14.8074 16.1601 14.1403C20.7575 10.8006 22.0916 9.79994 23.1013 9.01569ZM12 14.839C13.0457 14.857 14.5511 13.5229 15.3083 12.973C21.2894 8.63257 21.7446 8.25396 23.1238 7.17224C23.3852 6.96941 23.5385 6.65391 23.5385 6.32037V5.464C23.5385 4.26959 22.5694 3.30054 21.375 3.30054H2.62501C1.43059 3.30054 0.461548 4.26959 0.461548 5.464V6.32037C0.461548 6.65391 0.614793 6.9649 0.876212 7.17224C2.25542 8.24946 2.71064 8.63257 8.69172 12.973C9.4489 13.5229 10.9543 14.857 12 14.839Z"/>
</svg>
