<svg width="24" height="24" viewBox="0 0 24 24" xmlns="http://www.w3.org/2000/svg">
    <path d="M22.8671 11.4677C20.7958 7.61006 16.6952 5 12 5C7.30473 5 3.20304 7.61188 1.1329 11.4681C1.04552 11.6331 1 11.8154 1 12.0002C1 12.1851 1.04552 12.3674 1.1329 12.5323C3.20418 16.3899 7.30473 19 12 19C16.6952 19 20.7969 16.3881 22.8671 12.5319C22.9545 12.3669 23 12.1847 23 11.9999C23 11.815 22.9545 11.6327 22.8671 11.4677ZM12 17.25C10.9122 17.25 9.84881 16.9421 8.94435 16.3652C8.03987 15.7884 7.33493 14.9684 6.91864 14.0091C6.50236 13.0498 6.39344 11.9942 6.60566 10.9758C6.81788 9.95738 7.3417 9.02192 8.11089 8.28769C8.88009 7.55346 9.86009 7.05345 10.927 6.85088C11.9938 6.64831 13.0998 6.75227 14.1047 7.14963C15.1097 7.547 15.9687 8.2199 16.573 9.08326C17.1774 9.94661 17.5 10.9617 17.5 12C17.5003 12.6895 17.3583 13.3724 17.082 14.0095C16.8058 14.6466 16.4007 15.2255 15.8898 15.7131C15.3791 16.2006 14.7727 16.5873 14.1052 16.8511C13.4377 17.1147 12.7224 17.2504 12 17.25ZM12 8.5C11.6727 8.50437 11.3476 8.55085 11.0333 8.63818C11.2924 8.97421 11.4167 9.38772 11.3837 9.80373C11.3507 10.2197 11.1626 10.6107 10.8536 10.9057C10.5445 11.2007 10.1349 11.3802 9.69913 11.4117C9.26331 11.4432 8.8301 11.3245 8.47807 11.0772C8.27762 11.7822 8.3138 12.5294 8.58154 13.2137C8.84927 13.898 9.33507 14.4849 9.97056 14.8919C10.6061 15.2989 11.3592 15.5053 12.1241 15.4822C12.889 15.4592 13.627 15.2077 14.2343 14.7632C14.8416 14.3189 15.2877 13.7039 15.5097 13.0048C15.7315 12.3057 15.7182 11.5578 15.4716 10.8664C15.2249 10.1749 14.7573 9.57466 14.1345 9.15017C13.5117 8.72567 12.7653 8.49829 12 8.5Z"/>
</svg>