<svg xmlns="http://www.w3.org/2000/svg" width="24" height="24" viewBox="0 0 24 24"><path d="M12 24C5.4 24 0 18.6 0 12S5.4 0 12 0s12 5.4 12 12-5.4 12-12 12Zm-2.5-7c.6 3.1 1.7 5 2.5 5s1.9-1.9 2.5-5h-5Zm7.1 0c-.3 1.7-.8 3.3-1.4 4.5 2.3-.8 4.3-2.4 5.5-4.5h-4.1ZM3.3 17c1.2 2.1 3.2 3.7 5.5 4.5-.6-1.2-1.1-2.8-1.4-4.5H3.3Zm13.6-2h4.7c.2-.9.4-2 .4-3s-.2-2.1-.5-3h-4.7c.2 1 .2 2 .2 3s0 2-.1 3Zm-7.7 0h5.7c.1-.9.2-1.9.2-3s-.1-2.1-.2-3H9.2c-.1.9-.2 1.9-.2 3s.1 2.1.2 3Zm-6.7 0h4.7c-.1-1-.1-2-.1-3s0-2 .1-3H2.5c-.3.9-.5 2-.5 3s.2 2.1.5 3Zm14.1-8h4.1c-1.2-2.1-3.2-3.7-5.5-4.5.6 1.2 1.1 2.8 1.4 4.5ZM9.5 7h5.1c-.6-3.1-1.7-5-2.5-5s-2 1.9-2.6 5ZM3.3 7h4.1c.3-1.7.8-3.3 1.4-4.5-2.3.8-4.2 2.4-5.5 4.5Z"/></svg>