<svg xmlns="http://www.w3.org/2000/svg" width="24" height="24" viewBox="0 0 24 24"><path d="M18.514 6.172c-3.405 0-5.658 2.784-7.646 5.24-1.698 2.099-3.302 4.08-5.256 4.08-2.03 0-3.277-2.086-3.277-3.582 0-1.387 1.368-3.403 3.511-3.403 2.08 0 3.163 1.665 3.218 1.75a1.168 1.168 0 0 0 1.99-1.222c-.071-.117-1.784-2.863-5.208-2.863C2.401 6.172 0 9.196 0 11.91c0 2.8 2.305 5.918 5.612 5.918 3.067 0 5.103-2.515 7.071-4.947 1.82-2.249 3.54-4.374 5.831-4.374 1.363 0 2.258.463 2.737 1.412.415.825.414 1.758.414 2.08 0 .186-.098 1.116-.551 1.953-.517.953-1.251 1.397-2.312 1.397-2.136 0-3.29-1.388-3.724-1.911a2.518 2.518 0 0 0-.303-.327 1.168 1.168 0 0 0-1.57 1.727l.076.092c.567.681 2.289 2.754 5.52 2.754 3.929 0 5.199-3.83 5.199-5.7 0-1.191-.223-2.239-.664-3.115-.619-1.23-1.958-2.697-4.822-2.697Z"/></svg>