<svg width="24" height="24" viewBox="0 0 24 24" xmlns="http://www.w3.org/2000/svg">
<path d="M0.613802 7.18833L11.3539 12.0604C11.6674 12.2029 12.022 12.2029 12.3355 12.0604L23.0755 7.18833C23.8386 6.84206 23.8386 5.68892 23.0755 5.34265L12.3359 0.47013C12.1819 0.399723 12.0145 0.363281 11.8451 0.363281C11.6758 0.363281 11.5084 0.399723 11.3543 0.47013L0.613802 5.34222C-0.149262 5.68849 -0.149262 6.84206 0.613802 7.18833ZM23.076 11.2586L20.3976 10.0446L12.945 13.4229C12.5964 13.581 12.2262 13.6612 11.8449 13.6612C11.4636 13.6612 11.0938 13.581 10.7448 13.4229L3.29259 10.0446L0.613802 11.2586C-0.149262 11.6044 -0.149262 12.7571 0.613802 13.1029L11.3539 17.9713C11.6674 18.1133 12.022 18.1133 12.3355 17.9713L23.076 13.1029C23.8391 12.7571 23.8391 11.6044 23.076 11.2586ZM23.076 17.151L20.4078 15.9416L12.945 19.3245C12.5964 19.4826 12.2262 19.5629 11.8449 19.5629C11.4636 19.5629 11.0938 19.4826 10.7448 19.3245L3.28245 15.9416L0.613802 17.151C-0.149262 17.4968 -0.149262 18.6495 0.613802 18.9953L11.3539 23.8637C11.6674 24.0057 12.022 24.0057 12.3355 23.8637L23.076 18.9953C23.8391 18.6495 23.8391 17.4968 23.076 17.151Z"/>
</svg>