<svg width="24" height="24" viewBox="0 0 24 24" xmlns="http://www.w3.org/2000/svg">
<path d="M11.1106 23.0274C4.56175 13.5334 3.34616 12.559 3.34616 9.06986C3.34616 4.29046 7.2206 0.416016 12 0.416016C16.7794 0.416016 20.6539 4.29046 20.6539 9.06986C20.6539 12.559 19.4383 13.5334 12.8894 23.0274C12.4596 23.6481 11.5404 23.6481 11.1106 23.0274ZM12 12.6756C13.9915 12.6756 15.6057 11.0613 15.6057 9.06986C15.6057 7.07844 13.9915 5.46409 12 5.46409C10.0086 5.46409 8.39424 7.07844 8.39424 9.06986C8.39424 11.0613 10.0086 12.6756 12 12.6756Z"/>
</svg>
