<svg width="24" height="24" viewBox="0 0 24 24" xmlns="http://www.w3.org/2000/svg">
<path d="M22.3722 16.546L17.5597 14.4835C17.3541 14.3959 17.1257 14.3774 16.9087 14.4309C16.6917 14.4843 16.4979 14.6068 16.3566 14.78L14.2254 17.3839C10.8805 15.8069 8.18876 13.115 6.61172 9.77013L9.21562 7.63884C9.38908 7.49776 9.51185 7.30401 9.56535 7.08691C9.61884 6.86982 9.60015 6.64121 9.51211 6.43569L7.44961 1.6231C7.35298 1.40155 7.18207 1.22067 6.96636 1.11163C6.75065 1.0026 6.50366 0.97225 6.26797 1.02582L1.79922 2.05709C1.57199 2.10956 1.36925 2.23751 1.2241 2.42005C1.07894 2.60259 0.999948 2.82893 1 3.06215C1 14.0838 9.9332 23 20.9375 23C21.1708 23.0002 21.3972 22.9213 21.5799 22.776C21.7625 22.6309 21.8905 22.4281 21.943 22.2008L22.9742 17.732C23.0274 17.4952 22.9965 17.2471 22.8866 17.0307C22.7767 16.8142 22.5948 16.6428 22.3722 16.546Z"/>
</svg>
