<svg width="24" height="24" viewBox="0 0 24 24" xmlns="http://www.w3.org/2000/svg">
<path d="M21.3437 12H17.75V9.14284C17.75 7.56696 19.0393 6.2857 20.625 6.2857H20.9844C21.5819 6.2857 22.0625 5.80804 22.0625 5.21429V3.07143C22.0625 2.47768 21.5819 2 20.9844 2H20.625C16.6539 2 13.4375 5.19643 13.4375 9.14284V19.8571C13.4375 21.0402 14.4033 22 15.5937 22H21.3437C22.5342 22 23.5 21.0402 23.5 19.8571V14.1428C23.5 12.9598 22.5342 12 21.3437 12ZM8.40625 12H4.8125V9.14284C4.8125 7.56696 6.10176 6.2857 7.6875 6.2857H8.04687C8.64436 6.2857 9.125 5.80804 9.125 5.21429V3.07143C9.125 2.47768 8.64436 2 8.04687 2H7.6875C3.71641 2 0.5 5.19643 0.5 9.14284V19.8571C0.5 21.0402 1.46582 22 2.65625 22H8.40625C9.59667 22 10.5625 21.0402 10.5625 19.8571V14.1428C10.5625 12.9598 9.59667 12 8.40625 12Z"/>
</svg>