<svg width="24" height="24" viewBox="0 0 24 24" xmlns="http://www.w3.org/2000/svg">
<path d="M20.7516 15.9515C18.9738 16.7556 16.9932 16.9989 15.0736 16.649C13.154 16.2991 11.3867 15.3726 10.007 13.9929C8.62728 12.6132 7.70076 10.8458 7.35084 8.92625C7.00093 7.00669 7.24424 5.02608 8.04837 3.24829C6.63304 3.8879 5.39401 4.86133 4.43757 6.08504C3.48114 7.30876 2.83584 8.74624 2.55706 10.2742C2.27828 11.8021 2.37432 13.3748 2.83696 14.8575C3.2996 16.3401 4.11501 17.6884 5.21325 18.7866C6.31149 19.8848 7.65976 20.7003 9.1424 21.1629C10.625 21.6255 12.1978 21.7216 13.7257 21.4428C15.2536 21.164 16.6911 20.5187 17.9148 19.5623C19.1385 18.6058 20.112 17.3668 20.7516 15.9515Z"/>
</svg>