<svg width="24" height="24" viewBox="0 0 24 24" xmlns="http://www.w3.org/2000/svg">
<path d="M11.8447 12.1668C15.1044 12.1668 17.7464 9.52489 17.7464 6.26518C17.7464 3.00543 15.1044 0.363525 11.8447 0.363525C8.58498 0.363525 5.94309 3.00543 5.94309 6.26518C5.94309 9.52489 8.58498 12.1668 11.8447 12.1668ZM16.2617 13.6699L14.0578 22.4947L12.5824 16.2242L14.0578 13.6422H9.63161L11.107 16.2242L9.63161 22.4947L7.4277 13.6699C4.14029 13.8266 1.51685 16.5147 1.51685 19.8389V21.757C1.51685 22.9788 2.50814 23.9701 3.72996 23.9701H19.9595C21.1813 23.9701 22.1726 22.9788 22.1726 21.757V19.8389C22.1726 16.5147 19.5491 13.8266 16.2617 13.6699Z"/>
</svg>