<svg width="24" height="24" viewBox="0 0 24 24" xmlns="http://www.w3.org/2000/svg">
    <path d="M3.54931 10.8169C4.8544 10.8169 5.91551 9.75575 5.91551 8.45066C5.91551 7.14553 4.8544 6.08446 3.54931 6.08446C2.24419 6.08446 1.1831 7.14553 1.1831 8.45066C1.1831 9.75575 2.24419 10.8169 3.54931 10.8169ZM20.1127 10.8169C21.4178 10.8169 22.4789 9.75575 22.4789 8.45066C22.4789 7.14553 21.4178 6.08446 20.1127 6.08446C18.8076 6.08446 17.7465 7.14553 17.7465 8.45066C17.7465 9.75575 18.8076 10.8169 20.1127 10.8169ZM21.2958 12H18.9296C18.2789 12 17.691 12.2624 17.2621 12.6876C18.7521 13.5047 19.8095 14.9799 20.0387 16.7323H22.4789C23.1333 16.7323 23.662 16.2036 23.662 15.5492V14.3661C23.662 13.061 22.6009 12 21.2958 12ZM11.831 12C14.1196 12 15.9718 10.1477 15.9718 7.85911C15.9718 5.57056 14.1196 3.71826 11.831 3.71826C9.54241 3.71826 7.69015 5.57056 7.69015 7.85911C7.69015 10.1477 9.54241 12 11.831 12ZM14.6704 13.1831H14.3635C13.5945 13.5528 12.7405 13.7746 11.831 13.7746C10.9215 13.7746 10.0711 13.5528 9.29843 13.1831H8.99156C6.64014 13.1831 4.73241 15.0908 4.73241 17.4422V18.507C4.73241 19.4867 5.52728 20.2816 6.50706 20.2816H17.1549C18.1347 20.2816 18.9296 19.4867 18.9296 18.507V17.4422C18.9296 15.0908 17.0218 13.1831 14.6704 13.1831ZM6.39983 12.6876C5.97094 12.2624 5.38311 12 4.73241 12H2.3662C1.06109 12 0 13.061 0 14.3661V15.5492C0 16.2036 0.528696 16.7323 1.1831 16.7323H3.61955C3.85245 14.9799 4.90987 13.5047 6.39983 12.6876Z"/>
</svg>