<svg xmlns="http://www.w3.org/2000/svg" width="24" height="24" viewBox="0 0 24 24"><path fill-rule="evenodd" d="M1.307 3.795a.89.89 0 0 0-.295.16.804.804 0 0 0-.2.3c-.033.087-.033.087-.036 6.97-.002 6.26 0 6.89.016 6.955a.895.895 0 0 0 .163.308c.07.08.193.162.3.2.144.05.258.05.667-.007a74.49 74.49 0 0 1 4.681-.487c.046-.005.046-.005.006.026a6.236 6.236 0 0 0-1.015 1.011 5.01 5.01 0 0 0-.796 1.484c-.093.282-.059.522.105.738.094.124.244.22.402.257a.85.85 0 0 0 .412-.021.731.731 0 0 0 .413-.368.691.691 0 0 0 .046-.108c0-.008.024-.079.054-.158.552-1.459 2.202-2.595 4.282-2.948.56-.096.783-.11 1.582-.104.712.005.8.011 1.26.085 1.796.289 3.31 1.15 4.087 2.326.128.194.293.527.366.738.068.2.107.267.21.37a.69.69 0 0 0 .505.205c.28 0 .532-.152.653-.393a.588.588 0 0 0 .073-.334.638.638 0 0 0-.045-.281c-.312-.938-.916-1.771-1.785-2.462-.088-.07-.088-.07-.025-.064a76.617 76.617 0 0 1 4.729.492c.433.06.533.055.718-.041a.719.719 0 0 0 .349-.398c.032-.088.032-.088.035-6.97.003-6.261.001-6.89-.016-6.956a.896.896 0 0 0-.162-.308.784.784 0 0 0-.3-.2c-.14-.05-.262-.049-.62 0-1.77.247-3.861.45-5.737.559A66.568 66.568 0 0 1 12 4.493c-1.294 0-1.768-.008-2.8-.046a75.531 75.531 0 0 1-7.321-.633c-.327-.045-.465-.05-.572-.019Zm.92 7.455c0 5.918 0 5.918.026 5.912a75.486 75.486 0 0 1 8.042-.603 135.9 135.9 0 0 0 1.078-.026c.436-.013.574-.012 1.84.013a76.873 76.873 0 0 1 8.54.617c.02.006.02-.28.02-5.912 0-5.92 0-5.92-.026-5.913a76.869 76.869 0 0 1-7.972.606c-.654.018-2.898.018-3.556 0a77.212 77.212 0 0 1-7.966-.606c-.026-.006-.026-.006-.026 5.912ZM10.2 7.547a1.475 1.475 0 0 0-1.16 1.2c-.015.09-.017.4-.017 2.503 0 2.642-.005 2.476.072 2.693a1.529 1.529 0 0 0 1.29.988c.217.024.46-.014.677-.105.11-.046 3.96-2.358 4.073-2.446a1.43 1.43 0 0 0 .01-2.254 85.214 85.214 0 0 0-1.947-1.186 293.218 293.218 0 0 1-1.965-1.185 1.326 1.326 0 0 0-.524-.213 1.648 1.648 0 0 0-.509.005Zm.276 3.697c0 2.018.001 2.22.018 2.22.02 0 3.697-2.201 3.697-2.213 0-.007-3.696-2.228-3.708-2.228-.004 0-.007 1-.007 2.221Z" clip-rule="evenodd"/></svg>