<?xml version="1.0" encoding="utf-8"?>
<!-- This file is generated by yarn build:icons -->
<svg xmlns="http://www.w3.org/2000/svg" xmlns:xlink="http://www.w3.org/1999/xlink" width="0" height="0">
<defs>
<symbol viewBox="0 0 24 24" id="arrow-bottom">
    <path d="M19.787 8.21299C19.503 7.92902 19.0425 7.92897 18.7585 8.21304L12.0002 14.9715L5.24153 8.21299C4.95755 7.92902 4.49704 7.92897 4.21302 8.21304C3.92899 8.49707 3.92899 8.95753 4.21302 9.24155L11.4859 16.5143C11.6223 16.6507 11.8073 16.7273 12.0002 16.7273C12.193 16.7273 12.3781 16.6506 12.5144 16.5142L19.7869 9.2415C20.071 8.95753 20.071 8.49702 19.787 8.21299Z"></path>
</symbol>
<symbol viewBox="0 0 24 24" id="arrow-long-right">
    <path d="M12.3516 3.95169C12.5767 3.72672 12.8818 3.60034 13.2 3.60034C13.5182 3.60034 13.8234 3.72672 14.0484 3.95169L21.2484 11.1517C21.4734 11.3767 21.5998 11.6819 21.5998 12.0001C21.5998 12.3183 21.4734 12.6235 21.2484 12.8485L14.0484 20.0485C13.8221 20.2671 13.519 20.388 13.2043 20.3853C12.8897 20.3826 12.5887 20.2564 12.3662 20.0339C12.1438 19.8114 12.0175 19.5104 12.0148 19.1958C12.0121 18.8811 12.133 18.578 12.3516 18.3517L17.5032 13.2001H3.60002C3.28176 13.2001 2.97654 13.0737 2.7515 12.8486C2.52645 12.6236 2.40002 12.3183 2.40002 12.0001C2.40002 11.6818 2.52645 11.3766 2.7515 11.1516C2.97654 10.9265 3.28176 10.8001 3.60002 10.8001H17.5032L12.3516 5.64849C12.1267 5.42345 12.0003 5.11828 12.0003 4.80009C12.0003 4.48189 12.1267 4.17672 12.3516 3.95169Z"></path>
</symbol>
<symbol viewBox="0 0 24 24" id="cloud-moon">
<path d="M21 15.5018C18.651 14.5223 17 12.2039 17 9.5C17 6.79774 18.6534 4.48062 21 3.5C20.2304 3.17906 19.3859 3 18.5 3C15.7977 3 13.4806 4.64899 12.5 6.9956M6.9 21C4.74609 21 3 19.2889 3 17.1781C3 15.4286 4.3 13.8125 6.25 13.5C6.86168 12.0617 8.30934 11 9.9978 11C12.1607 11 13.9285 12.6589 14.05 14.75C15.1978 15.2463 16 16.4645 16 17.7835C16 19.5599 14.5449 21 12.75 21L6.9 21Z" stroke="#000000" stroke-width="2" stroke-linecap="round" stroke-linejoin="round"></path>
</symbol>
<symbol viewBox="0 0 24 24" id="facebook-messenger">
<path d="M17.3 9.6C17.6314 9.15817 17.5418 8.53137 17.1 8.2C16.6582 7.86863 16.0314 7.95817 15.7 8.4L13.3918 11.4776L11.2071 9.29289C11.0021 9.08791 10.7183 8.98197 10.4291 9.00252C10.1399 9.02307 9.87393 9.16809 9.7 9.4L6.7 13.4C6.36863 13.8418 6.45817 14.4686 6.9 14.8C7.34183 15.1314 7.96863 15.0418 8.3 14.6L10.6082 11.5224L12.7929 13.7071C12.9979 13.9121 13.2817 14.018 13.5709 13.9975C13.8601 13.9769 14.1261 13.8319 14.3 13.6L17.3 9.6Z"></path>
<path fill-rule="evenodd" clip-rule="evenodd" d="M12 23C10.7764 23 10.0994 22.8687 9 22.5L6.89443 23.5528C5.56462 24.2177 4 23.2507 4 21.7639V19.5C1.84655 17.492 1 15.1767 1 12C1 5.92487 5.92487 1 12 1C18.0751 1 23 5.92487 23 12C23 18.0751 18.0751 23 12 23ZM6 18.6303L5.36395 18.0372C3.69087 16.4772 3 14.7331 3 12C3 7.02944 7.02944 3 12 3C16.9706 3 21 7.02944 21 12C21 16.9706 16.9706 21 12 21C11.0143 21 10.552 20.911 9.63595 20.6038L8.84847 20.3397L6 21.7639V18.6303Z"></path>
</symbol>
</defs>
</svg>
