<?xml version="1.0" encoding="utf-8"?>
<!-- This file is generated by yarn build:icons -->
<svg xmlns="http://www.w3.org/2000/svg" xmlns:xlink="http://www.w3.org/1999/xlink" width="0" height="0">
<defs>
<symbol viewBox="0 0 24 24" id="arrow-bottom">
    <path d="M19.787 8.21299C19.503 7.92902 19.0425 7.92897 18.7585 8.21304L12.0002 14.9715L5.24153 8.21299C4.95755 7.92902 4.49704 7.92897 4.21302 8.21304C3.92899 8.49707 3.92899 8.95753 4.21302 9.24155L11.4859 16.5143C11.6223 16.6507 11.8073 16.7273 12.0002 16.7273C12.193 16.7273 12.3781 16.6506 12.5144 16.5142L19.7869 9.2415C20.071 8.95753 20.071 8.49702 19.787 8.21299Z"></path>
</symbol>
<symbol viewBox="0 0 24 24" id="arrow-long-right">
    <path d="M12.3516 3.95169C12.5767 3.72672 12.8818 3.60034 13.2 3.60034C13.5182 3.60034 13.8234 3.72672 14.0484 3.95169L21.2484 11.1517C21.4734 11.3767 21.5998 11.6819 21.5998 12.0001C21.5998 12.3183 21.4734 12.6235 21.2484 12.8485L14.0484 20.0485C13.8221 20.2671 13.519 20.388 13.2043 20.3853C12.8897 20.3826 12.5887 20.2564 12.3662 20.0339C12.1438 19.8114 12.0175 19.5104 12.0148 19.1958C12.0121 18.8811 12.133 18.578 12.3516 18.3517L17.5032 13.2001H3.60002C3.28176 13.2001 2.97654 13.0737 2.7515 12.8486C2.52645 12.6236 2.40002 12.3183 2.40002 12.0001C2.40002 11.6818 2.52645 11.3766 2.7515 11.1516C2.97654 10.9265 3.28176 10.8001 3.60002 10.8001H17.5032L12.3516 5.64849C12.1267 5.42345 12.0003 5.11828 12.0003 4.80009C12.0003 4.48189 12.1267 4.17672 12.3516 3.95169Z"></path>
</symbol>
<symbol viewBox="0 0 24 24" id="bar"><path d="M1 2.5h22v3H1v-3ZM1 10.5h22v3H1v-3ZM23 18.5H1v3h22v-3Z"></path></symbol>
<symbol viewBox="0 0 24 24" id="check-circle">
    <path d="M23 12C23 18.0752 18.0752 23 12 23C5.92485 23 1 18.0752 1 12C1 5.92485 5.92485 1 12 1C18.0752 1 23 5.92485 23 12ZM10.7276 17.8245L18.889 9.66312C19.166 9.38599 19.166 8.93664 18.889 8.6595L17.8853 7.65589C17.6081 7.37871 17.1588 7.37871 16.8817 7.65589L10.2258 14.3117L7.11835 11.2042C6.84122 10.9271 6.39186 10.9271 6.11469 11.2042L5.11107 12.2078C4.83395 12.485 4.83395 12.9343 5.11107 13.2114L9.72398 17.8244C10.0011 18.1015 10.4505 18.1015 10.7276 17.8245Z"></path>
</symbol>
<symbol viewBox="0 0 24 24" id="doller">
    <path d="M14.717 11.0289L10.2161 9.67107C9.69511 9.51639 9.33254 9.01365 9.33254 8.45506C9.33254 7.75467 9.88265 7.18749 10.562 7.18749H13.325C13.8335 7.18749 14.3336 7.34647 14.7504 7.63865C15.0046 7.81483 15.3464 7.77186 15.5631 7.55272L17.0134 6.09178C17.3093 5.7953 17.2675 5.30116 16.9383 5.03905C15.9173 4.21405 14.642 3.75429 13.3334 3.75V1.6875C13.3334 1.30937 13.0334 1 12.6666 1H11.3329C10.9662 1 10.6662 1.30937 10.6662 1.6875V3.75H10.562C7.90723 3.75 5.77343 6.10038 6.01932 8.88904C6.19435 10.8699 7.66134 12.4813 9.51175 13.0398L13.7835 14.3288C14.3045 14.4879 14.667 14.9863 14.667 15.5449C14.667 16.2452 14.1169 16.8125 13.4376 16.8125H10.6745C10.1661 16.8125 9.66594 16.6535 9.24918 16.3613C8.99496 16.1851 8.65322 16.2281 8.4365 16.4472L6.9862 17.9082C6.69029 18.2047 6.73198 18.6988 7.06121 18.9609C8.08226 19.7859 9.35754 20.2457 10.6662 20.25V22.3125C10.6662 22.6906 10.9662 23 11.3329 23H12.6666C13.0334 23 13.3334 22.6906 13.3334 22.3125V20.2413C15.2754 20.2027 17.0967 19.0125 17.7385 17.1175C18.6346 14.4707 17.13 11.7551 14.717 11.0289Z"></path>
</symbol>
<symbol viewBox="0 0 24 24" id="envelope">
<path d="M23.1013 9.01569C23.2771 8.87596 23.5385 9.00667 23.5385 9.22752V18.4447C23.5385 19.6392 22.5694 20.6082 21.375 20.6082H2.62501C1.43059 20.6082 0.461548 19.6392 0.461548 18.4447V9.23206C0.461548 9.00667 0.718459 8.88046 0.898748 9.02019C1.90836 9.80446 3.24701 10.8006 7.84436 14.1403C8.79538 14.8345 10.3999 16.2948 12 16.2858C13.6091 16.2993 15.2452 14.8074 16.1601 14.1403C20.7575 10.8006 22.0916 9.79994 23.1013 9.01569ZM12 14.839C13.0457 14.857 14.5511 13.5229 15.3083 12.973C21.2894 8.63257 21.7446 8.25396 23.1238 7.17224C23.3852 6.96941 23.5385 6.65391 23.5385 6.32037V5.464C23.5385 4.26959 22.5694 3.30054 21.375 3.30054H2.62501C1.43059 3.30054 0.461548 4.26959 0.461548 5.464V6.32037C0.461548 6.65391 0.614793 6.9649 0.876212 7.17224C2.25542 8.24946 2.71064 8.63257 8.69172 12.973C9.4489 13.5229 10.9543 14.857 12 14.839Z"></path>
</symbol>
<symbol viewBox="0 0 24 24" id="eye-hide"><path d="M2.22 2.22a.75.75 0 0 0-.073.976l.073.084 4.034 4.035a9.986 9.986 0 0 0-3.955 5.75.75.75 0 0 0 1.455.364 8.49 8.49 0 0 1 3.58-5.034l1.81 1.81A4 4 0 0 0 14.8 15.86l5.919 5.92a.75.75 0 0 0 1.133-.977l-.073-.084-6.113-6.114.001-.002-1.2-1.198-2.87-2.87h.002L8.719 7.658l.001-.002-1.133-1.13L3.28 2.22a.75.75 0 0 0-1.06 0Zm7.984 9.045 3.535 3.536a2.5 2.5 0 0 1-3.535-3.535ZM12 5.5c-1 0-1.97.148-2.889.425l1.237 1.236a8.503 8.503 0 0 1 9.899 6.272.75.75 0 0 0 1.455-.363A10.003 10.003 0 0 0 12 5.5Zm.195 3.51 3.801 3.8a4.003 4.003 0 0 0-3.801-3.8Z"></path></symbol>
<symbol viewBox="0 0 24 24" id="eye-show"><path d="M12 9.005a4 4 0 1 1 0 8 4 4 0 0 1 0-8Zm0 1.5a2.5 2.5 0 1 0 0 5 2.5 2.5 0 0 0 0-5ZM12 5.5c4.613 0 8.596 3.15 9.701 7.564a.75.75 0 1 1-1.455.365 8.504 8.504 0 0 0-16.493.004.75.75 0 0 1-1.456-.363A10.003 10.003 0 0 1 12 5.5Z"></path></symbol>
<symbol viewBox="0 0 24 24" id="eye">
    <path d="M22.8671 11.4677C20.7958 7.61006 16.6952 5 12 5C7.30473 5 3.20304 7.61188 1.1329 11.4681C1.04552 11.6331 1 11.8154 1 12.0002C1 12.1851 1.04552 12.3674 1.1329 12.5323C3.20418 16.3899 7.30473 19 12 19C16.6952 19 20.7969 16.3881 22.8671 12.5319C22.9545 12.3669 23 12.1847 23 11.9999C23 11.815 22.9545 11.6327 22.8671 11.4677ZM12 17.25C10.9122 17.25 9.84881 16.9421 8.94435 16.3652C8.03987 15.7884 7.33493 14.9684 6.91864 14.0091C6.50236 13.0498 6.39344 11.9942 6.60566 10.9758C6.81788 9.95738 7.3417 9.02192 8.11089 8.28769C8.88009 7.55346 9.86009 7.05345 10.927 6.85088C11.9938 6.64831 13.0998 6.75227 14.1047 7.14963C15.1097 7.547 15.9687 8.2199 16.573 9.08326C17.1774 9.94661 17.5 10.9617 17.5 12C17.5003 12.6895 17.3583 13.3724 17.082 14.0095C16.8058 14.6466 16.4007 15.2255 15.8898 15.7131C15.3791 16.2006 14.7727 16.5873 14.1052 16.8511C13.4377 17.1147 12.7224 17.2504 12 17.25ZM12 8.5C11.6727 8.50437 11.3476 8.55085 11.0333 8.63818C11.2924 8.97421 11.4167 9.38772 11.3837 9.80373C11.3507 10.2197 11.1626 10.6107 10.8536 10.9057C10.5445 11.2007 10.1349 11.3802 9.69913 11.4117C9.26331 11.4432 8.8301 11.3245 8.47807 11.0772C8.27762 11.7822 8.3138 12.5294 8.58154 13.2137C8.84927 13.898 9.33507 14.4849 9.97056 14.8919C10.6061 15.2989 11.3592 15.5053 12.1241 15.4822C12.889 15.4592 13.627 15.2077 14.2343 14.7632C14.8416 14.3189 15.2877 13.7039 15.5097 13.0048C15.7315 12.3057 15.7182 11.5578 15.4716 10.8664C15.2249 10.1749 14.7573 9.57466 14.1345 9.15017C13.5117 8.72567 12.7653 8.49829 12 8.5Z"></path>
</symbol>
<symbol viewBox="0 0 24 24" id="facebook">
<path d="M8.25 14.0297V24H13.6875V14.0297H17.7422L18.5859 9.44531H13.6875V7.82344C13.6875 5.4 14.6391 4.47188 17.0953 4.47188C17.8594 4.47188 18.4734 4.49062 18.8297 4.52812V0.370313C18.1594 0.1875 16.5187 0 15.5719 0C10.5609 0 8.25 2.36719 8.25 7.47187V9.44531H5.15625V14.0297H8.25Z"></path>
</symbol>
<symbol viewBox="0 0 24 24" id="globe"><path d="M12 24C5.4 24 0 18.6 0 12S5.4 0 12 0s12 5.4 12 12-5.4 12-12 12Zm-2.5-7c.6 3.1 1.7 5 2.5 5s1.9-1.9 2.5-5h-5Zm7.1 0c-.3 1.7-.8 3.3-1.4 4.5 2.3-.8 4.3-2.4 5.5-4.5h-4.1ZM3.3 17c1.2 2.1 3.2 3.7 5.5 4.5-.6-1.2-1.1-2.8-1.4-4.5H3.3Zm13.6-2h4.7c.2-.9.4-2 .4-3s-.2-2.1-.5-3h-4.7c.2 1 .2 2 .2 3s0 2-.1 3Zm-7.7 0h5.7c.1-.9.2-1.9.2-3s-.1-2.1-.2-3H9.2c-.1.9-.2 1.9-.2 3s.1 2.1.2 3Zm-6.7 0h4.7c-.1-1-.1-2-.1-3s0-2 .1-3H2.5c-.3.9-.5 2-.5 3s.2 2.1.5 3Zm14.1-8h4.1c-1.2-2.1-3.2-3.7-5.5-4.5.6 1.2 1.1 2.8 1.4 4.5ZM9.5 7h5.1c-.6-3.1-1.7-5-2.5-5s-2 1.9-2.6 5ZM3.3 7h4.1c.3-1.7.8-3.3 1.4-4.5-2.3.8-4.2 2.4-5.5 4.5Z"></path></symbol>
<symbol viewBox="0 0 24 24" id="infinite"><path d="M18.514 6.172c-3.405 0-5.658 2.784-7.646 5.24-1.698 2.099-3.302 4.08-5.256 4.08-2.03 0-3.277-2.086-3.277-3.582 0-1.387 1.368-3.403 3.511-3.403 2.08 0 3.163 1.665 3.218 1.75a1.168 1.168 0 0 0 1.99-1.222c-.071-.117-1.784-2.863-5.208-2.863C2.401 6.172 0 9.196 0 11.91c0 2.8 2.305 5.918 5.612 5.918 3.067 0 5.103-2.515 7.071-4.947 1.82-2.249 3.54-4.374 5.831-4.374 1.363 0 2.258.463 2.737 1.412.415.825.414 1.758.414 2.08 0 .186-.098 1.116-.551 1.953-.517.953-1.251 1.397-2.312 1.397-2.136 0-3.29-1.388-3.724-1.911a2.518 2.518 0 0 0-.303-.327 1.168 1.168 0 0 0-1.57 1.727l.076.092c.567.681 2.289 2.754 5.52 2.754 3.929 0 5.199-3.83 5.199-5.7 0-1.191-.223-2.239-.664-3.115-.619-1.23-1.958-2.697-4.822-2.697Z"></path></symbol>
<symbol viewBox="0 0 24 24" id="layers">
<path d="M0.613802 7.18833L11.3539 12.0604C11.6674 12.2029 12.022 12.2029 12.3355 12.0604L23.0755 7.18833C23.8386 6.84206 23.8386 5.68892 23.0755 5.34265L12.3359 0.47013C12.1819 0.399723 12.0145 0.363281 11.8451 0.363281C11.6758 0.363281 11.5084 0.399723 11.3543 0.47013L0.613802 5.34222C-0.149262 5.68849 -0.149262 6.84206 0.613802 7.18833ZM23.076 11.2586L20.3976 10.0446L12.945 13.4229C12.5964 13.581 12.2262 13.6612 11.8449 13.6612C11.4636 13.6612 11.0938 13.581 10.7448 13.4229L3.29259 10.0446L0.613802 11.2586C-0.149262 11.6044 -0.149262 12.7571 0.613802 13.1029L11.3539 17.9713C11.6674 18.1133 12.022 18.1133 12.3355 17.9713L23.076 13.1029C23.8391 12.7571 23.8391 11.6044 23.076 11.2586ZM23.076 17.151L20.4078 15.9416L12.945 19.3245C12.5964 19.4826 12.2262 19.5629 11.8449 19.5629C11.4636 19.5629 11.0938 19.4826 10.7448 19.3245L3.28245 15.9416L0.613802 17.151C-0.149262 17.4968 -0.149262 18.6495 0.613802 18.9953L11.3539 23.8637C11.6674 24.0057 12.022 24.0057 12.3355 23.8637L23.076 18.9953C23.8391 18.6495 23.8391 17.4968 23.076 17.151Z"></path>
</symbol>
<symbol viewBox="0 0 24 24" id="lesson"><path d="M20 22H5a1 1 0 0 1-1-1v-2H3a1 1 0 0 1 0-2h1v-2H3a1 1 0 0 1 0-2h1v-2H3a1 1 0 0 1 0-2h1V7H3a1 1 0 0 1 0-2h1V3a1 1 0 0 1 1-1h15a1 1 0 0 1 1 1v15a1 1 0 0 1-2 0V4H6v1h1a1 1 0 0 1 0 2H6v2h1a1 1 0 0 1 0 2H6v2h1a1 1 0 0 1 0 2H6v2h1a1 1 0 0 1 0 2H6v1h14a1 1 0 0 1 0 2Z"></path><path d="M15 11h-4a1 1 0 0 1 0-2h4a1 1 0 1 1 0 2ZM11 15h4a1 1 0 0 0 0-2h-4a1 1 0 0 0 0 2Z"></path></symbol>
<symbol viewBox="0 0 24 24" id="linkedin">
<path d="M6.20062 21H1.84688V6.97971H6.20062V21ZM4.02141 5.06721C2.62922 5.06721 1.5 3.91408 1.5 2.52189C1.5 1.85318 1.76565 1.21185 2.2385 0.738991C2.71136 0.266136 3.35269 0.000488281 4.02141 0.000488281C4.69012 0.000488281 5.33145 0.266136 5.80431 0.738991C6.27716 1.21185 6.54281 1.85318 6.54281 2.52189C6.54281 3.91408 5.41313 5.06721 4.02141 5.06721ZM22.4953 21H18.1509V14.175C18.1509 12.5485 18.1181 10.4625 15.8873 10.4625C13.6237 10.4625 13.2769 12.2297 13.2769 14.0578V21H8.92781V6.97971H13.1034V8.89221H13.1644C13.7456 7.79064 15.1655 6.62814 17.2838 6.62814C21.69 6.62814 22.5 9.52971 22.5 13.2985V21H22.4953Z"></path>
</symbol>
<symbol viewBox="0 0 24 24" id="location">
<path d="M11.1106 23.0274C4.56175 13.5334 3.34616 12.559 3.34616 9.06986C3.34616 4.29046 7.2206 0.416016 12 0.416016C16.7794 0.416016 20.6539 4.29046 20.6539 9.06986C20.6539 12.559 19.4383 13.5334 12.8894 23.0274C12.4596 23.6481 11.5404 23.6481 11.1106 23.0274ZM12 12.6756C13.9915 12.6756 15.6057 11.0613 15.6057 9.06986C15.6057 7.07844 13.9915 5.46409 12 5.46409C10.0086 5.46409 8.39424 7.07844 8.39424 9.06986C8.39424 11.0613 10.0086 12.6756 12 12.6756Z"></path>
</symbol>
<symbol viewBox="0 0 24 24" id="moon">
<path d="M11.9999 2.3999C12.3182 2.3999 12.6234 2.52633 12.8484 2.75137C13.0735 2.97642 13.1999 3.28164 13.1999 3.5999V4.7999C13.1999 5.11816 13.0735 5.42339 12.8484 5.64843C12.6234 5.87347 12.3182 5.9999 11.9999 5.9999C11.6816 5.9999 11.3764 5.87347 11.1514 5.64843C10.9263 5.42339 10.7999 5.11816 10.7999 4.7999V3.5999C10.7999 3.28164 10.9263 2.97642 11.1514 2.75137C11.3764 2.52633 11.6816 2.3999 11.9999 2.3999ZM16.7999 11.9999C16.7999 13.2729 16.2942 14.4938 15.394 15.394C14.4938 16.2942 13.2729 16.7999 11.9999 16.7999C10.7269 16.7999 9.50596 16.2942 8.60579 15.394C7.70562 14.4938 7.1999 13.2729 7.1999 11.9999C7.1999 10.7269 7.70562 9.50596 8.60579 8.60579C9.50596 7.70562 10.7269 7.1999 11.9999 7.1999C13.2729 7.1999 14.4938 7.70562 15.394 8.60579C16.2942 9.50596 16.7999 10.7269 16.7999 11.9999ZM16.2431 17.9399L17.0915 18.7883C17.3178 19.0069 17.6209 19.1278 17.9356 19.1251C18.2502 19.1224 18.5512 18.9962 18.7737 18.7737C18.9962 18.5512 19.1224 18.2502 19.1251 17.9356C19.1278 17.6209 19.0069 17.3178 18.7883 17.0915L17.9399 16.2431C17.7136 16.0245 17.4105 15.9036 17.0958 15.9063C16.7812 15.909 16.4802 16.0352 16.2577 16.2577C16.0352 16.4802 15.909 16.7812 15.9063 17.0958C15.9036 17.4105 16.0245 17.7136 16.2431 17.9399ZM18.7871 5.2115C19.0121 5.43654 19.1384 5.74171 19.1384 6.0599C19.1384 6.3781 19.0121 6.68327 18.7871 6.9083L17.9399 7.7567C17.8292 7.87132 17.6968 7.96273 17.5504 8.02562C17.404 8.08852 17.2465 8.12162 17.0872 8.123C16.9278 8.12439 16.7698 8.09403 16.6224 8.03369C16.4749 7.97335 16.3409 7.88425 16.2282 7.77158C16.1156 7.65891 16.0265 7.52492 15.9661 7.37745C15.9058 7.22997 15.8754 7.07196 15.8768 6.91262C15.8782 6.75329 15.9113 6.59582 15.9742 6.44942C16.0371 6.30301 16.1285 6.1706 16.2431 6.0599L17.0915 5.2115C17.3165 4.98654 17.6217 4.86016 17.9399 4.86016C18.2581 4.86016 18.5621 4.98654 18.7871 5.2115ZM20.3999 13.1999C20.7182 13.1999 21.0234 13.0735 21.2484 12.8484C21.4735 12.6234 21.5999 12.3182 21.5999 11.9999C21.5999 11.6816 21.4735 11.3764 21.2484 11.1514C21.0234 10.9263 20.7182 10.7999 20.3999 10.7999H19.1999C18.8816 10.7999 18.5764 10.9263 18.3514 11.1514C18.1263 11.3764 17.9999 11.6816 17.9999 11.9999C17.9999 12.3182 18.1263 12.6234 18.3514 12.8484C18.5764 13.0735 18.8816 13.1999 19.1999 13.1999H20.3999ZM11.9999 17.9999C12.3182 17.9999 12.6234 18.1263 12.8484 18.3514C13.0735 18.5764 13.1999 18.8816 13.1999 19.1999V20.3999C13.1999 20.7182 13.0735 21.0234 12.8484 21.2484C12.6234 21.4735 12.3182 21.5999 11.9999 21.5999C11.6816 21.5999 11.3764 21.4735 11.1514 21.2484C10.9263 21.0234 10.7999 20.7182 10.7999 20.3999V19.1999C10.7999 18.8816 10.9263 18.5764 11.1514 18.3514C11.3764 18.1263 11.6816 17.9999 11.9999 17.9999ZM6.0599 7.7567C6.17132 7.8682 6.3036 7.95665 6.4492 8.01702C6.5948 8.07739 6.75086 8.10849 6.90848 8.10855C7.0661 8.1086 7.22218 8.07761 7.36782 8.01734C7.51347 7.95708 7.64581 7.86872 7.7573 7.7573C7.86879 7.64589 7.95725 7.51361 8.01762 7.36801C8.07799 7.22241 8.10909 7.06635 8.10915 6.90873C8.1092 6.75111 8.07821 6.59502 8.01795 6.44938C7.95768 6.30374 7.86932 6.17139 7.7579 6.0599L6.9083 5.2115C6.68198 4.99291 6.37886 4.87196 6.06422 4.87469C5.74959 4.87743 5.44861 5.00363 5.22612 5.22612C5.00363 5.44861 4.87743 5.74959 4.87469 6.06422C4.87196 6.37886 4.99291 6.68198 5.2115 6.9083L6.0599 7.7567ZM7.7567 17.9399L6.9083 18.7883C6.68198 19.0069 6.37886 19.1278 6.06422 19.1251C5.74959 19.1224 5.44861 18.9962 5.22612 18.7737C5.00363 18.5512 4.87743 18.2502 4.87469 17.9356C4.87196 17.6209 4.99291 17.3178 5.2115 17.0915L6.0599 16.2431C6.28623 16.0245 6.58935 15.9036 6.90398 15.9063C7.21862 15.909 7.51959 16.0352 7.74208 16.2577C7.96457 16.4802 8.09078 16.7812 8.09351 17.0958C8.09625 17.4105 7.97529 17.7136 7.7567 17.9399ZM4.7999 13.1999C5.11816 13.1999 5.42339 13.0735 5.64843 12.8484C5.87347 12.6234 5.9999 12.3182 5.9999 11.9999C5.9999 11.6816 5.87347 11.3764 5.64843 11.1514C5.42339 10.9263 5.11816 10.7999 4.7999 10.7999H3.5999C3.28164 10.7999 2.97642 10.9263 2.75137 11.1514C2.52633 11.3764 2.3999 11.6816 2.3999 11.9999C2.3999 12.3182 2.52633 12.6234 2.75137 12.8484C2.97642 13.0735 3.28164 13.1999 3.5999 13.1999H4.7999Z"></path>
</symbol>
<symbol viewBox="0 0 25 25" id="paper-plane">
<path d="M22.8145 0.638715L1.08553 13.1706C0.237001 13.658 0.344825 14.839 1.18866 15.1952L6.172 17.2853L19.6406 5.419C19.8984 5.18937 20.2641 5.54085 20.0437 5.80799L8.75041 19.5631V23.3358C8.75041 24.4417 10.0865 24.8776 10.7428 24.0763L13.7197 20.4536L19.561 22.8999C20.2266 23.1811 20.986 22.764 21.108 22.047L24.4833 1.80098C24.6428 0.854296 23.6255 0.170059 22.8145 0.638715Z"></path>
</symbol>
<symbol viewBox="0 0 24 24" id="phone">
<path d="M22.3722 16.546L17.5597 14.4835C17.3541 14.3959 17.1257 14.3774 16.9087 14.4309C16.6917 14.4843 16.4979 14.6068 16.3566 14.78L14.2254 17.3839C10.8805 15.8069 8.18876 13.115 6.61172 9.77013L9.21562 7.63884C9.38908 7.49776 9.51185 7.30401 9.56535 7.08691C9.61884 6.86982 9.60015 6.64121 9.51211 6.43569L7.44961 1.6231C7.35298 1.40155 7.18207 1.22067 6.96636 1.11163C6.75065 1.0026 6.50366 0.97225 6.26797 1.02582L1.79922 2.05709C1.57199 2.10956 1.36925 2.23751 1.2241 2.42005C1.07894 2.60259 0.999948 2.82893 1 3.06215C1 14.0838 9.9332 23 20.9375 23C21.1708 23.0002 21.3972 22.9213 21.5799 22.776C21.7625 22.6309 21.8905 22.4281 21.943 22.2008L22.9742 17.732C23.0274 17.4952 22.9965 17.2471 22.8866 17.0307C22.7767 16.8142 22.5948 16.6428 22.3722 16.546Z"></path>
</symbol>
<symbol viewBox="0 0 24 24" id="pinterest">
<path d="M12.5625 0.304688C7.75313 0.304688 3 3.51094 3 8.7C3 12 4.85625 13.875 5.98125 13.875C6.44531 13.875 6.7125 12.5813 6.7125 12.2156C6.7125 11.7797 5.60156 10.8516 5.60156 9.0375C5.60156 5.26875 8.47031 2.59688 12.1828 2.59688C15.375 2.59688 17.7375 4.41094 17.7375 7.74375C17.7375 10.2328 16.7391 14.9016 13.5047 14.9016C12.3375 14.9016 11.3391 14.0578 11.3391 12.8484C11.3391 11.0766 12.5766 9.36094 12.5766 7.53281C12.5766 4.42969 8.175 4.99219 8.175 8.74219C8.175 9.52969 8.27344 10.4016 8.625 11.1188C7.97812 13.9031 6.65625 18.0516 6.65625 20.9203C6.65625 21.8063 6.78281 22.6781 6.86719 23.5641C7.02656 23.7422 6.94688 23.7234 7.19063 23.6344C9.55313 20.4 9.46875 19.7672 10.5375 15.5344C11.1141 16.6313 12.6047 17.2219 13.7859 17.2219C18.7641 17.2219 21 12.3703 21 7.99688C21 3.34219 16.9781 0.304688 12.5625 0.304688Z"></path>
</symbol>
<symbol viewBox="0 0 24 24" id="play">
    <path d="M6.26117 2.44098C4.46015 1.40669 3 2.254 3 4.33197V19.6665C3 21.7466 4.46015 22.5928 6.26117 21.5595L19.6488 13.8728C21.4504 12.8382 21.4504 11.1619 19.6488 10.1275L6.26117 2.44098Z"></path>
</symbol>
<symbol viewBox="0 0 24 24" id="quote-left">
<path d="M21.3437 12H17.75V9.14284C17.75 7.56696 19.0393 6.2857 20.625 6.2857H20.9844C21.5819 6.2857 22.0625 5.80804 22.0625 5.21429V3.07143C22.0625 2.47768 21.5819 2 20.9844 2H20.625C16.6539 2 13.4375 5.19643 13.4375 9.14284V19.8571C13.4375 21.0402 14.4033 22 15.5937 22H21.3437C22.5342 22 23.5 21.0402 23.5 19.8571V14.1428C23.5 12.9598 22.5342 12 21.3437 12ZM8.40625 12H4.8125V9.14284C4.8125 7.56696 6.10176 6.2857 7.6875 6.2857H8.04687C8.64436 6.2857 9.125 5.80804 9.125 5.21429V3.07143C9.125 2.47768 8.64436 2 8.04687 2H7.6875C3.71641 2 0.5 5.19643 0.5 9.14284V19.8571C0.5 21.0402 1.46582 22 2.65625 22H8.40625C9.59667 22 10.5625 21.0402 10.5625 19.8571V14.1428C10.5625 12.9598 9.59667 12 8.40625 12Z"></path>
</symbol>
<symbol viewBox="0 0 24 24" id="sun">
<path d="M20.7516 15.9515C18.9738 16.7556 16.9932 16.9989 15.0736 16.649C13.154 16.2991 11.3867 15.3726 10.007 13.9929C8.62728 12.6132 7.70076 10.8458 7.35084 8.92625C7.00093 7.00669 7.24424 5.02608 8.04837 3.24829C6.63304 3.8879 5.39401 4.86133 4.43757 6.08504C3.48114 7.30876 2.83584 8.74624 2.55706 10.2742C2.27828 11.8021 2.37432 13.3748 2.83696 14.8575C3.2996 16.3401 4.11501 17.6884 5.21325 18.7866C6.31149 19.8848 7.65976 20.7003 9.1424 21.1629C10.625 21.6255 12.1978 21.7216 13.7257 21.4428C15.2536 21.164 16.6911 20.5187 17.9148 19.5623C19.1385 18.6058 20.112 17.3668 20.7516 15.9515Z"></path>
</symbol>
<symbol viewBox="0 0 24 24" id="trophy-2">
<path d="M22.7301 4.298H18.4678V2.65866C18.4678 2.11358 18.0293 1.67505 17.4842 1.67505H6.33669C5.79161 1.67505 5.35308 2.11358 5.35308 2.65866V4.298H1.09078C0.545701 4.298 0.107178 4.73654 0.107178 5.28161V7.57668C0.107178 9.03981 1.02931 10.5439 2.64406 11.7037C3.93504 12.6341 5.50471 13.2242 7.15226 13.4128C8.43913 15.548 9.94326 16.4291 9.94326 16.4291V19.38H7.97605C6.52932 19.38 5.35308 20.2283 5.35308 21.6751V22.1669C5.35308 22.4374 5.57439 22.6587 5.84488 22.6587H17.976C18.2465 22.6587 18.4678 22.4374 18.4678 22.1669V21.6751C18.4678 20.2283 17.2916 19.38 15.8449 19.38H13.8777V16.4291C13.8777 16.4291 15.3818 15.548 16.6686 13.4128C18.3203 13.2242 19.89 12.6341 21.1768 11.7037C22.7875 10.5439 23.7138 9.03981 23.7138 7.57668V5.28161C23.7138 4.73654 23.2752 4.298 22.7301 4.298ZM4.17685 9.57671C3.17685 8.85537 2.73013 8.05212 2.73013 7.57668V6.92097H5.36127C5.40226 8.25702 5.59898 9.42916 5.88588 10.4537C5.267 10.2406 4.68915 9.94556 4.17685 9.57671ZM21.0908 7.57668C21.0908 8.23652 20.3654 9.05618 19.6441 9.57671C19.1318 9.94556 18.5498 10.2406 17.9309 10.4537C18.2178 9.42916 18.4146 8.25702 18.4555 6.92097H21.0908V7.57668Z"></path>
</symbol>
<symbol viewBox="0 0 24 24" id="trophy">
    <path d="M4.878 3.994a.356.356 0 0 0-.286-.193l-1.269-.114-.838-.96a.356.356 0 0 0-.596.095l-.501 1.171-1.172.501a.356.356 0 0 0-.094.596l.96.839.114 1.269a.356.356 0 0 0 .537.274l1.094-.654 1.242.284a.357.357 0 0 0 .427-.427l-.283-1.242.653-1.094a.356.356 0 0 0 .012-.345ZM3.486 5.452l.19.829-.83-.19a.357.357 0 0 0-.261.042l-.73.436-.077-.847a.356.356 0 0 0-.12-.236l-.64-.56.781-.334a.357.357 0 0 0 .188-.187l.334-.782.56.64c.06.07.145.112.236.12l.847.077-.436.73a.356.356 0 0 0-.042.262ZM15.224 2.44a.357.357 0 0 0-.251-.236l-1.731-.441-.947-1.515a.356.356 0 0 0-.604-.002l-.955 1.51-1.733.432a.357.357 0 0 0-.188.574l1.14 1.374-.123 1.782a.356.356 0 0 0 .487.356l1.66-.66 1.656.67a.357.357 0 0 0 .49-.354l-.116-1.783 1.149-1.368a.357.357 0 0 0 .066-.339ZM13.37 3.8a.356.356 0 0 0-.082.252l.087 1.359-1.263-.51a.356.356 0 0 0-.265 0l-1.266.503.095-1.36a.357.357 0 0 0-.081-.252l-.87-1.048 1.322-.33a.357.357 0 0 0 .215-.155l.728-1.152.722 1.156a.356.356 0 0 0 .214.156l1.32.337-.876 1.044ZM23.917 5.572l-.816-.978.085-1.271a.356.356 0 0 0-.488-.355l-1.183.474-1.182-.474a.356.356 0 0 0-.488.355l.085 1.271-.816.978a.356.356 0 0 0 .186.574l1.235.312.679 1.079a.356.356 0 0 0 .603 0l.678-1.079 1.236-.312a.357.357 0 0 0 .186-.574Zm-1.735.23a.357.357 0 0 0-.214.156l-.453.72-.452-.72a.356.356 0 0 0-.215-.156l-.824-.208.545-.653a.357.357 0 0 0 .082-.252l-.057-.848.789.316c.085.034.18.034.265 0l.789-.316-.057.848a.357.357 0 0 0 .082.252l.545.653-.825.208ZM17.904 8.276h-1.079v-.553a.356.356 0 0 0-.356-.357H7.183a.356.356 0 0 0-.357.357v.553H5.748a2.745 2.745 0 0 0-2.742 2.742 2.745 2.745 0 0 0 2.742 2.741h1.158a5.016 5.016 0 0 0 3.574 3.922v2.49c0 .41-.334.744-.745.744a.357.357 0 0 0-.356.357v.675h-.55a.356.356 0 0 0-.356.356v1.26c0 .197.16.357.357.357h5.988c.196 0 .356-.16.356-.357v-1.26a.357.357 0 0 0-.356-.356h-.508v-.675a.356.356 0 0 0-.357-.357h-.037a.746.746 0 0 1-.744-.745v-2.489a5.016 5.016 0 0 0 3.573-3.922h1.159a2.745 2.745 0 0 0 2.742-2.742 2.745 2.745 0 0 0-2.742-2.741Zm-12.156 4.77c-1.119 0-2.03-.91-2.03-2.028 0-1.12.911-2.03 2.03-2.03h1.078v3.878c0 .06.002.12.004.18H5.748ZM7.539 8.08h8.574v.65H7.539v-.65Zm6.922 14.58v.548H9.186v-.547h5.275Zm-.864-1.066v.354h-3.505v-.363a1.46 1.46 0 0 0 1.1-1.414v-2.274h1.267v2.274a1.46 1.46 0 0 0 1.138 1.423Zm2.516-8.727a4.292 4.292 0 0 1-4.287 4.286 4.292 4.292 0 0 1-4.287-4.286V9.442h8.574v3.424Zm1.79.18h-1.081l.003-.18V8.988h1.079c1.119 0 2.029.91 2.029 2.03 0 1.118-.91 2.029-2.03 2.029Z"></path>
</symbol>
<symbol viewBox="0 0 24 24" id="twitter">
<path d="M18.2438 2.25H21.5531L14.325 10.5094L22.8281 21.75H16.1719L10.9547 14.9344L4.99219 21.75H1.67813L9.40782 12.9141L1.25626 2.25H8.08126L12.7922 8.47969L18.2438 2.25ZM17.0813 19.7719H18.9141L7.08282 4.125H5.11407L17.0813 19.7719Z"></path>
</symbol>
<symbol viewBox="0 0 24 24" id="user">
<path d="M11.8447 12.1668C15.1044 12.1668 17.7464 9.52489 17.7464 6.26518C17.7464 3.00543 15.1044 0.363525 11.8447 0.363525C8.58498 0.363525 5.94309 3.00543 5.94309 6.26518C5.94309 9.52489 8.58498 12.1668 11.8447 12.1668ZM16.2617 13.6699L14.0578 22.4947L12.5824 16.2242L14.0578 13.6422H9.63161L11.107 16.2242L9.63161 22.4947L7.4277 13.6699C4.14029 13.8266 1.51685 16.5147 1.51685 19.8389V21.757C1.51685 22.9788 2.50814 23.9701 3.72996 23.9701H19.9595C21.1813 23.9701 22.1726 22.9788 22.1726 21.757V19.8389C22.1726 16.5147 19.5491 13.8266 16.2617 13.6699Z"></path>
</symbol>
<symbol viewBox="0 0 24 24" id="users">
    <path d="M3.54931 10.8169C4.8544 10.8169 5.91551 9.75575 5.91551 8.45066C5.91551 7.14553 4.8544 6.08446 3.54931 6.08446C2.24419 6.08446 1.1831 7.14553 1.1831 8.45066C1.1831 9.75575 2.24419 10.8169 3.54931 10.8169ZM20.1127 10.8169C21.4178 10.8169 22.4789 9.75575 22.4789 8.45066C22.4789 7.14553 21.4178 6.08446 20.1127 6.08446C18.8076 6.08446 17.7465 7.14553 17.7465 8.45066C17.7465 9.75575 18.8076 10.8169 20.1127 10.8169ZM21.2958 12H18.9296C18.2789 12 17.691 12.2624 17.2621 12.6876C18.7521 13.5047 19.8095 14.9799 20.0387 16.7323H22.4789C23.1333 16.7323 23.662 16.2036 23.662 15.5492V14.3661C23.662 13.061 22.6009 12 21.2958 12ZM11.831 12C14.1196 12 15.9718 10.1477 15.9718 7.85911C15.9718 5.57056 14.1196 3.71826 11.831 3.71826C9.54241 3.71826 7.69015 5.57056 7.69015 7.85911C7.69015 10.1477 9.54241 12 11.831 12ZM14.6704 13.1831H14.3635C13.5945 13.5528 12.7405 13.7746 11.831 13.7746C10.9215 13.7746 10.0711 13.5528 9.29843 13.1831H8.99156C6.64014 13.1831 4.73241 15.0908 4.73241 17.4422V18.507C4.73241 19.4867 5.52728 20.2816 6.50706 20.2816H17.1549C18.1347 20.2816 18.9296 19.4867 18.9296 18.507V17.4422C18.9296 15.0908 17.0218 13.1831 14.6704 13.1831ZM6.39983 12.6876C5.97094 12.2624 5.38311 12 4.73241 12H2.3662C1.06109 12 0 13.061 0 14.3661V15.5492C0 16.2036 0.528696 16.7323 1.1831 16.7323H3.61955C3.85245 14.9799 4.90987 13.5047 6.39983 12.6876Z"></path>
</symbol>
<symbol viewBox="0 0 24 24" id="video-play"><path fill-rule="evenodd" d="M1.307 3.795a.89.89 0 0 0-.295.16.804.804 0 0 0-.2.3c-.033.087-.033.087-.036 6.97-.002 6.26 0 6.89.016 6.955a.895.895 0 0 0 .163.308c.07.08.193.162.3.2.144.05.258.05.667-.007a74.49 74.49 0 0 1 4.681-.487c.046-.005.046-.005.006.026a6.236 6.236 0 0 0-1.015 1.011 5.01 5.01 0 0 0-.796 1.484c-.093.282-.059.522.105.738.094.124.244.22.402.257a.85.85 0 0 0 .412-.021.731.731 0 0 0 .413-.368.691.691 0 0 0 .046-.108c0-.008.024-.079.054-.158.552-1.459 2.202-2.595 4.282-2.948.56-.096.783-.11 1.582-.104.712.005.8.011 1.26.085 1.796.289 3.31 1.15 4.087 2.326.128.194.293.527.366.738.068.2.107.267.21.37a.69.69 0 0 0 .505.205c.28 0 .532-.152.653-.393a.588.588 0 0 0 .073-.334.638.638 0 0 0-.045-.281c-.312-.938-.916-1.771-1.785-2.462-.088-.07-.088-.07-.025-.064a76.617 76.617 0 0 1 4.729.492c.433.06.533.055.718-.041a.719.719 0 0 0 .349-.398c.032-.088.032-.088.035-6.97.003-6.261.001-6.89-.016-6.956a.896.896 0 0 0-.162-.308.784.784 0 0 0-.3-.2c-.14-.05-.262-.049-.62 0-1.77.247-3.861.45-5.737.559A66.568 66.568 0 0 1 12 4.493c-1.294 0-1.768-.008-2.8-.046a75.531 75.531 0 0 1-7.321-.633c-.327-.045-.465-.05-.572-.019Zm.92 7.455c0 5.918 0 5.918.026 5.912a75.486 75.486 0 0 1 8.042-.603 135.9 135.9 0 0 0 1.078-.026c.436-.013.574-.012 1.84.013a76.873 76.873 0 0 1 8.54.617c.02.006.02-.28.02-5.912 0-5.92 0-5.92-.026-5.913a76.869 76.869 0 0 1-7.972.606c-.654.018-2.898.018-3.556 0a77.212 77.212 0 0 1-7.966-.606c-.026-.006-.026-.006-.026 5.912ZM10.2 7.547a1.475 1.475 0 0 0-1.16 1.2c-.015.09-.017.4-.017 2.503 0 2.642-.005 2.476.072 2.693a1.529 1.529 0 0 0 1.29.988c.217.024.46-.014.677-.105.11-.046 3.96-2.358 4.073-2.446a1.43 1.43 0 0 0 .01-2.254 85.214 85.214 0 0 0-1.947-1.186 293.218 293.218 0 0 1-1.965-1.185 1.326 1.326 0 0 0-.524-.213 1.648 1.648 0 0 0-.509.005Zm.276 3.697c0 2.018.001 2.22.018 2.22.02 0 3.697-2.201 3.697-2.213 0-.007-3.696-2.228-3.708-2.228-.004 0-.007 1-.007 2.221Z" clip-rule="evenodd"></path></symbol>
</defs>
</svg>
