<?xml version="1.0" encoding="utf-8"?>
<!-- This file is generated by yarn build:icons -->
<svg xmlns="http://www.w3.org/2000/svg" xmlns:xlink="http://www.w3.org/1999/xlink" width="0" height="0">
<defs>
<symbol viewBox="0 0 24 24" id="arrow-bottom">
    <path d="M19.787 8.21299C19.503 7.92902 19.0425 7.92897 18.7585 8.21304L12.0002 14.9715L5.24153 8.21299C4.95755 7.92902 4.49704 7.92897 4.21302 8.21304C3.92899 8.49707 3.92899 8.95753 4.21302 9.24155L11.4859 16.5143C11.6223 16.6507 11.8073 16.7273 12.0002 16.7273C12.193 16.7273 12.3781 16.6506 12.5144 16.5142L19.7869 9.2415C20.071 8.95753 20.071 8.49702 19.787 8.21299Z"></path>
</symbol>
<symbol viewBox="0 0 24 24" id="arrow-long-right">
    <path d="M12.3516 3.95169C12.5767 3.72672 12.8818 3.60034 13.2 3.60034C13.5182 3.60034 13.8234 3.72672 14.0484 3.95169L21.2484 11.1517C21.4734 11.3767 21.5998 11.6819 21.5998 12.0001C21.5998 12.3183 21.4734 12.6235 21.2484 12.8485L14.0484 20.0485C13.8221 20.2671 13.519 20.388 13.2043 20.3853C12.8897 20.3826 12.5887 20.2564 12.3662 20.0339C12.1438 19.8114 12.0175 19.5104 12.0148 19.1958C12.0121 18.8811 12.133 18.578 12.3516 18.3517L17.5032 13.2001H3.60002C3.28176 13.2001 2.97654 13.0737 2.7515 12.8486C2.52645 12.6236 2.40002 12.3183 2.40002 12.0001C2.40002 11.6818 2.52645 11.3766 2.7515 11.1516C2.97654 10.9265 3.28176 10.8001 3.60002 10.8001H17.5032L12.3516 5.64849C12.1267 5.42345 12.0003 5.11828 12.0003 4.80009C12.0003 4.48189 12.1267 4.17672 12.3516 3.95169Z"></path>
</symbol>
<symbol viewBox="0 0 24 24" id="bar"><path d="M1 2.5h22v3H1v-3ZM1 10.5h22v3H1v-3ZM23 18.5H1v3h22v-3Z"></path></symbol>
<symbol viewBox="0 0 24 24" id="facebook">
<path d="M8.25 14.0297V24H13.6875V14.0297H17.7422L18.5859 9.44531H13.6875V7.82344C13.6875 5.4 14.6391 4.47188 17.0953 4.47188C17.8594 4.47188 18.4734 4.49062 18.8297 4.52812V0.370313C18.1594 0.1875 16.5187 0 15.5719 0C10.5609 0 8.25 2.36719 8.25 7.47187V9.44531H5.15625V14.0297H8.25Z"></path>
</symbol>
<symbol viewBox="0 0 24 24" id="linkedin">
<path d="M6.20062 21H1.84688V6.97971H6.20062V21ZM4.02141 5.06721C2.62922 5.06721 1.5 3.91408 1.5 2.52189C1.5 1.85318 1.76565 1.21185 2.2385 0.738991C2.71136 0.266136 3.35269 0.000488281 4.02141 0.000488281C4.69012 0.000488281 5.33145 0.266136 5.80431 0.738991C6.27716 1.21185 6.54281 1.85318 6.54281 2.52189C6.54281 3.91408 5.41313 5.06721 4.02141 5.06721ZM22.4953 21H18.1509V14.175C18.1509 12.5485 18.1181 10.4625 15.8873 10.4625C13.6237 10.4625 13.2769 12.2297 13.2769 14.0578V21H8.92781V6.97971H13.1034V8.89221H13.1644C13.7456 7.79064 15.1655 6.62814 17.2838 6.62814C21.69 6.62814 22.5 9.52971 22.5 13.2985V21H22.4953Z"></path>
</symbol>
<symbol viewBox="0 0 24 24" id="moon">
<path d="M11.9999 2.3999C12.3182 2.3999 12.6234 2.52633 12.8484 2.75137C13.0735 2.97642 13.1999 3.28164 13.1999 3.5999V4.7999C13.1999 5.11816 13.0735 5.42339 12.8484 5.64843C12.6234 5.87347 12.3182 5.9999 11.9999 5.9999C11.6816 5.9999 11.3764 5.87347 11.1514 5.64843C10.9263 5.42339 10.7999 5.11816 10.7999 4.7999V3.5999C10.7999 3.28164 10.9263 2.97642 11.1514 2.75137C11.3764 2.52633 11.6816 2.3999 11.9999 2.3999ZM16.7999 11.9999C16.7999 13.2729 16.2942 14.4938 15.394 15.394C14.4938 16.2942 13.2729 16.7999 11.9999 16.7999C10.7269 16.7999 9.50596 16.2942 8.60579 15.394C7.70562 14.4938 7.1999 13.2729 7.1999 11.9999C7.1999 10.7269 7.70562 9.50596 8.60579 8.60579C9.50596 7.70562 10.7269 7.1999 11.9999 7.1999C13.2729 7.1999 14.4938 7.70562 15.394 8.60579C16.2942 9.50596 16.7999 10.7269 16.7999 11.9999ZM16.2431 17.9399L17.0915 18.7883C17.3178 19.0069 17.6209 19.1278 17.9356 19.1251C18.2502 19.1224 18.5512 18.9962 18.7737 18.7737C18.9962 18.5512 19.1224 18.2502 19.1251 17.9356C19.1278 17.6209 19.0069 17.3178 18.7883 17.0915L17.9399 16.2431C17.7136 16.0245 17.4105 15.9036 17.0958 15.9063C16.7812 15.909 16.4802 16.0352 16.2577 16.2577C16.0352 16.4802 15.909 16.7812 15.9063 17.0958C15.9036 17.4105 16.0245 17.7136 16.2431 17.9399ZM18.7871 5.2115C19.0121 5.43654 19.1384 5.74171 19.1384 6.0599C19.1384 6.3781 19.0121 6.68327 18.7871 6.9083L17.9399 7.7567C17.8292 7.87132 17.6968 7.96273 17.5504 8.02562C17.404 8.08852 17.2465 8.12162 17.0872 8.123C16.9278 8.12439 16.7698 8.09403 16.6224 8.03369C16.4749 7.97335 16.3409 7.88425 16.2282 7.77158C16.1156 7.65891 16.0265 7.52492 15.9661 7.37745C15.9058 7.22997 15.8754 7.07196 15.8768 6.91262C15.8782 6.75329 15.9113 6.59582 15.9742 6.44942C16.0371 6.30301 16.1285 6.1706 16.2431 6.0599L17.0915 5.2115C17.3165 4.98654 17.6217 4.86016 17.9399 4.86016C18.2581 4.86016 18.5621 4.98654 18.7871 5.2115ZM20.3999 13.1999C20.7182 13.1999 21.0234 13.0735 21.2484 12.8484C21.4735 12.6234 21.5999 12.3182 21.5999 11.9999C21.5999 11.6816 21.4735 11.3764 21.2484 11.1514C21.0234 10.9263 20.7182 10.7999 20.3999 10.7999H19.1999C18.8816 10.7999 18.5764 10.9263 18.3514 11.1514C18.1263 11.3764 17.9999 11.6816 17.9999 11.9999C17.9999 12.3182 18.1263 12.6234 18.3514 12.8484C18.5764 13.0735 18.8816 13.1999 19.1999 13.1999H20.3999ZM11.9999 17.9999C12.3182 17.9999 12.6234 18.1263 12.8484 18.3514C13.0735 18.5764 13.1999 18.8816 13.1999 19.1999V20.3999C13.1999 20.7182 13.0735 21.0234 12.8484 21.2484C12.6234 21.4735 12.3182 21.5999 11.9999 21.5999C11.6816 21.5999 11.3764 21.4735 11.1514 21.2484C10.9263 21.0234 10.7999 20.7182 10.7999 20.3999V19.1999C10.7999 18.8816 10.9263 18.5764 11.1514 18.3514C11.3764 18.1263 11.6816 17.9999 11.9999 17.9999ZM6.0599 7.7567C6.17132 7.8682 6.3036 7.95665 6.4492 8.01702C6.5948 8.07739 6.75086 8.10849 6.90848 8.10855C7.0661 8.1086 7.22218 8.07761 7.36782 8.01734C7.51347 7.95708 7.64581 7.86872 7.7573 7.7573C7.86879 7.64589 7.95725 7.51361 8.01762 7.36801C8.07799 7.22241 8.10909 7.06635 8.10915 6.90873C8.1092 6.75111 8.07821 6.59502 8.01795 6.44938C7.95768 6.30374 7.86932 6.17139 7.7579 6.0599L6.9083 5.2115C6.68198 4.99291 6.37886 4.87196 6.06422 4.87469C5.74959 4.87743 5.44861 5.00363 5.22612 5.22612C5.00363 5.44861 4.87743 5.74959 4.87469 6.06422C4.87196 6.37886 4.99291 6.68198 5.2115 6.9083L6.0599 7.7567ZM7.7567 17.9399L6.9083 18.7883C6.68198 19.0069 6.37886 19.1278 6.06422 19.1251C5.74959 19.1224 5.44861 18.9962 5.22612 18.7737C5.00363 18.5512 4.87743 18.2502 4.87469 17.9356C4.87196 17.6209 4.99291 17.3178 5.2115 17.0915L6.0599 16.2431C6.28623 16.0245 6.58935 15.9036 6.90398 15.9063C7.21862 15.909 7.51959 16.0352 7.74208 16.2577C7.96457 16.4802 8.09078 16.7812 8.09351 17.0958C8.09625 17.4105 7.97529 17.7136 7.7567 17.9399ZM4.7999 13.1999C5.11816 13.1999 5.42339 13.0735 5.64843 12.8484C5.87347 12.6234 5.9999 12.3182 5.9999 11.9999C5.9999 11.6816 5.87347 11.3764 5.64843 11.1514C5.42339 10.9263 5.11816 10.7999 4.7999 10.7999H3.5999C3.28164 10.7999 2.97642 10.9263 2.75137 11.1514C2.52633 11.3764 2.3999 11.6816 2.3999 11.9999C2.3999 12.3182 2.52633 12.6234 2.75137 12.8484C2.97642 13.0735 3.28164 13.1999 3.5999 13.1999H4.7999Z"></path>
</symbol>
<symbol viewBox="0 0 25 25" id="paper-plane">
<path d="M22.8145 0.638715L1.08553 13.1706C0.237001 13.658 0.344825 14.839 1.18866 15.1952L6.172 17.2853L19.6406 5.419C19.8984 5.18937 20.2641 5.54085 20.0437 5.80799L8.75041 19.5631V23.3358C8.75041 24.4417 10.0865 24.8776 10.7428 24.0763L13.7197 20.4536L19.561 22.8999C20.2266 23.1811 20.986 22.764 21.108 22.047L24.4833 1.80098C24.6428 0.854296 23.6255 0.170059 22.8145 0.638715Z"></path>
</symbol>
<symbol viewBox="0 0 24 24" id="pinterest">
<path d="M12.5625 0.304688C7.75313 0.304688 3 3.51094 3 8.7C3 12 4.85625 13.875 5.98125 13.875C6.44531 13.875 6.7125 12.5813 6.7125 12.2156C6.7125 11.7797 5.60156 10.8516 5.60156 9.0375C5.60156 5.26875 8.47031 2.59688 12.1828 2.59688C15.375 2.59688 17.7375 4.41094 17.7375 7.74375C17.7375 10.2328 16.7391 14.9016 13.5047 14.9016C12.3375 14.9016 11.3391 14.0578 11.3391 12.8484C11.3391 11.0766 12.5766 9.36094 12.5766 7.53281C12.5766 4.42969 8.175 4.99219 8.175 8.74219C8.175 9.52969 8.27344 10.4016 8.625 11.1188C7.97812 13.9031 6.65625 18.0516 6.65625 20.9203C6.65625 21.8063 6.78281 22.6781 6.86719 23.5641C7.02656 23.7422 6.94688 23.7234 7.19063 23.6344C9.55313 20.4 9.46875 19.7672 10.5375 15.5344C11.1141 16.6313 12.6047 17.2219 13.7859 17.2219C18.7641 17.2219 21 12.3703 21 7.99688C21 3.34219 16.9781 0.304688 12.5625 0.304688Z"></path>
</symbol>
<symbol viewBox="0 0 24 24" id="play">
    <path d="M6.26117 2.44098C4.46015 1.40669 3 2.254 3 4.33197V19.6665C3 21.7466 4.46015 22.5928 6.26117 21.5595L19.6488 13.8728C21.4504 12.8382 21.4504 11.1619 19.6488 10.1275L6.26117 2.44098Z"></path>
</symbol>
<symbol viewBox="0 0 24 24" id="quote-left">
<path d="M21.3437 12H17.75V9.14284C17.75 7.56696 19.0393 6.2857 20.625 6.2857H20.9844C21.5819 6.2857 22.0625 5.80804 22.0625 5.21429V3.07143C22.0625 2.47768 21.5819 2 20.9844 2H20.625C16.6539 2 13.4375 5.19643 13.4375 9.14284V19.8571C13.4375 21.0402 14.4033 22 15.5937 22H21.3437C22.5342 22 23.5 21.0402 23.5 19.8571V14.1428C23.5 12.9598 22.5342 12 21.3437 12ZM8.40625 12H4.8125V9.14284C4.8125 7.56696 6.10176 6.2857 7.6875 6.2857H8.04687C8.64436 6.2857 9.125 5.80804 9.125 5.21429V3.07143C9.125 2.47768 8.64436 2 8.04687 2H7.6875C3.71641 2 0.5 5.19643 0.5 9.14284V19.8571C0.5 21.0402 1.46582 22 2.65625 22H8.40625C9.59667 22 10.5625 21.0402 10.5625 19.8571V14.1428C10.5625 12.9598 9.59667 12 8.40625 12Z"></path>
</symbol>
<symbol viewBox="0 0 24 24" id="sun">
<path d="M20.7516 15.9515C18.9738 16.7556 16.9932 16.9989 15.0736 16.649C13.154 16.2991 11.3867 15.3726 10.007 13.9929C8.62728 12.6132 7.70076 10.8458 7.35084 8.92625C7.00093 7.00669 7.24424 5.02608 8.04837 3.24829C6.63304 3.8879 5.39401 4.86133 4.43757 6.08504C3.48114 7.30876 2.83584 8.74624 2.55706 10.2742C2.27828 11.8021 2.37432 13.3748 2.83696 14.8575C3.2996 16.3401 4.11501 17.6884 5.21325 18.7866C6.31149 19.8848 7.65976 20.7003 9.1424 21.1629C10.625 21.6255 12.1978 21.7216 13.7257 21.4428C15.2536 21.164 16.6911 20.5187 17.9148 19.5623C19.1385 18.6058 20.112 17.3668 20.7516 15.9515Z"></path>
</symbol>
<symbol viewBox="0 0 24 24" id="twitter">
<path d="M18.2438 2.25H21.5531L14.325 10.5094L22.8281 21.75H16.1719L10.9547 14.9344L4.99219 21.75H1.67813L9.40782 12.9141L1.25626 2.25H8.08126L12.7922 8.47969L18.2438 2.25ZM17.0813 19.7719H18.9141L7.08282 4.125H5.11407L17.0813 19.7719Z"></path>
</symbol>
</defs>
</svg>
